# xmcd
#
# Track frame offsets:
#	150
#	18384
#	38268
#	54938
#	71004
#	86752
#	102018
#	124925
#	153125
#	174965
#	191525
#	217135
#
# Disc length: 3110 seconds
#
# Revision: 0
# Processed by: cddbd v1.5.2PL0 Copyright (c) Steve Scherf et al.
# Submitted via: audiograbber 1.83.01
#
DISCID=930c240c
DTITLE=Cdpool - Street November 09 CD1
DYEAR=2009
DGENRE=R&B
TTITLE0=Timbaland Ft SoShy - Morning After Dark
TTITLE1=Flo Rida Ft Akon - Available
TTITLE2=Jason Derulo - Whatcha Say
TTITLE3=Lil Precious - So Insane
TTITLE4=Realist - Never Gonna Stop
TTITLE5=Aggro - Culo!
TTITLE6=Inhabitants Vs Hannah Liston - Loser (Psycho Kid Remix)
TTITLE7=Allan Hoist - Inner City Blues
TTITLE8=Pimps Of Joy Time - Funky Brooklyn
TTITLE9=Dr Rubberfunk Ft Roachford - Trouble Woman (Steinski Remix)
TTITLE10=Julien Dyne - Fallin' Down
TTITLE11=J Cole - Lights Please (Clean)
EXTD=
EXTT0=
EXTT1=
EXTT2=
EXTT3=
EXTT4=
EXTT5=
EXTT6=
EXTT7=
EXTT8=
EXTT9=
EXTT10=
EXTT11=
PLAYORDER=
